<svg width="199" height="36" viewBox="0 0 199 36" fill="none" xmlns="http://www.w3.org/2000/svg">
<g clip-path="url(#clip0)">
<path d="M13.2803 11.5576C13.2803 13.6846 12.7529 15.3193 11.6982 16.4619C10.6436 17.6045 9.13184 18.1758 7.16309 18.1758C5.19434 18.1758 3.68262 17.6045 2.62793 16.4619C1.57324 15.3193 1.0459 13.6787 1.0459 11.54C1.0459 9.40137 1.57324 7.76953 2.62793 6.64453C3.68848 5.51367 5.20605 4.94824 7.18066 4.94824C9.15527 4.94824 10.6641 5.5166 11.707 6.65332C12.7559 7.79004 13.2803 9.4248 13.2803 11.5576ZM3.90234 11.5576C3.90234 12.9932 4.1748 14.0742 4.71973 14.8008C5.26465 15.5273 6.0791 15.8906 7.16309 15.8906C9.33691 15.8906 10.4238 14.4463 10.4238 11.5576C10.4238 8.66309 9.34277 7.21582 7.18066 7.21582C6.09668 7.21582 5.2793 7.58203 4.72852 8.31445C4.17773 9.04102 3.90234 10.1221 3.90234 11.5576ZM28.7086 5.15039V13.4648C28.7086 14.4141 28.4947 15.2461 28.067 15.9609C27.6451 16.6758 27.0328 17.2236 26.2301 17.6045C25.4273 17.9854 24.4781 18.1758 23.3824 18.1758C21.7301 18.1758 20.4469 17.7539 19.5328 16.9102C18.6187 16.0605 18.1617 14.9004 18.1617 13.4297V5.15039H20.8775V13.0166C20.8775 14.0068 21.0768 14.7334 21.4752 15.1963C21.8736 15.6592 22.5328 15.8906 23.4527 15.8906C24.3434 15.8906 24.9879 15.6592 25.3863 15.1963C25.7906 14.7275 25.9928 13.9951 25.9928 12.999V5.15039H28.7086ZM36.8859 10.8545H37.7648C38.6262 10.8545 39.2619 10.7109 39.6721 10.4238C40.0822 10.1367 40.2873 9.68555 40.2873 9.07031C40.2873 8.46094 40.0764 8.02734 39.6545 7.76953C39.2385 7.51172 38.591 7.38281 37.7121 7.38281H36.8859V10.8545ZM36.8859 13.0693V18H34.1613V5.15039H37.9055C39.6516 5.15039 40.9436 5.46973 41.7814 6.1084C42.6193 6.74121 43.0383 7.70508 43.0383 9C43.0383 9.75586 42.8303 10.4297 42.4143 11.0215C41.9982 11.6074 41.4094 12.0674 40.6477 12.4014C42.5812 15.29 43.841 17.1562 44.427 18H41.4035L38.3361 13.0693H36.8859ZM60.7904 7.2334C59.765 7.2334 58.9711 7.62012 58.4086 8.39355C57.8461 9.16113 57.5648 10.2334 57.5648 11.6104C57.5648 14.4756 58.64 15.9082 60.7904 15.9082C61.6928 15.9082 62.7855 15.6826 64.0687 15.2314V17.5166C63.0141 17.9561 61.8363 18.1758 60.5355 18.1758C58.6664 18.1758 57.2367 17.6104 56.2465 16.4795C55.2562 15.3428 54.7611 13.7139 54.7611 11.5928C54.7611 10.2568 55.0043 9.08789 55.4906 8.08594C55.977 7.07812 56.6742 6.30762 57.5824 5.77441C58.4965 5.23535 59.5658 4.96582 60.7904 4.96582C62.0385 4.96582 63.2924 5.26758 64.5521 5.87109L63.6732 8.08594C63.1928 7.85742 62.7094 7.6582 62.223 7.48828C61.7367 7.31836 61.2592 7.2334 60.7904 7.2334ZM76.9834 18L76.0518 14.9414H71.3672L70.4355 18H67.5L72.0352 5.09766H75.3662L79.9189 18H76.9834ZM75.4014 12.6562C74.54 9.88477 74.0537 8.31738 73.9424 7.9541C73.8369 7.59082 73.7607 7.30371 73.7139 7.09277C73.5205 7.84277 72.9668 9.69727 72.0527 12.6562H75.4014ZM86.5758 11.1973H87.4723C88.3102 11.1973 88.9371 11.0332 89.3531 10.7051C89.7691 10.3711 89.9771 9.8877 89.9771 9.25488C89.9771 8.61621 89.8014 8.14453 89.4498 7.83984C89.1041 7.53516 88.5592 7.38281 87.815 7.38281H86.5758V11.1973ZM92.7281 9.1582C92.7281 10.541 92.2945 11.5986 91.4273 12.3311C90.566 13.0635 89.3385 13.4297 87.7447 13.4297H86.5758V18H83.8512V5.15039H87.9557C89.5143 5.15039 90.6979 5.4873 91.5064 6.16113C92.3209 6.8291 92.7281 7.82812 92.7281 9.1582ZM105.326 18L104.395 14.9414H99.7102L98.7785 18H95.843L100.378 5.09766H103.709L108.262 18H105.326ZM103.744 12.6562C102.883 9.88477 102.397 8.31738 102.285 7.9541C102.18 7.59082 102.104 7.30371 102.057 7.09277C101.863 7.84277 101.31 9.69727 100.396 12.6562H103.744ZM112.194 5.15039H116.193C118.015 5.15039 119.337 5.41113 120.157 5.93262C120.983 6.44824 121.396 7.27148 121.396 8.40234C121.396 9.16992 121.215 9.7998 120.851 10.292C120.494 10.7842 120.016 11.0801 119.419 11.1797V11.2676C120.233 11.4492 120.819 11.7891 121.177 12.2871C121.54 12.7852 121.721 13.4473 121.721 14.2734C121.721 15.4453 121.297 16.3594 120.447 17.0156C119.603 17.6719 118.455 18 117.002 18H112.194V5.15039ZM114.919 10.2393H116.501C117.239 10.2393 117.772 10.125 118.1 9.89648C118.434 9.66797 118.601 9.29004 118.601 8.7627C118.601 8.27051 118.42 7.91895 118.056 7.70801C117.699 7.49121 117.131 7.38281 116.351 7.38281H114.919V10.2393ZM114.919 12.4014V15.75H116.694C117.444 15.75 117.998 15.6064 118.355 15.3193C118.713 15.0322 118.891 14.5928 118.891 14.001C118.891 12.9346 118.13 12.4014 116.606 12.4014H114.919ZM126.594 18V5.15039H129.319V18H126.594ZM134.859 18V5.15039H137.584V15.75H142.796V18H134.859ZM147.343 18V5.15039H150.068V18H147.343ZM160.566 18H157.841V7.41797H154.352V5.15039H164.055V7.41797H160.566V18ZM168.339 18V5.15039H171.063V18H168.339ZM184.004 18H176.604V5.15039H184.004V7.38281H179.329V10.2041H183.679V12.4365H179.329V15.75H184.004V18ZM196.585 14.4316C196.585 15.5918 196.166 16.5059 195.328 17.1738C194.496 17.8418 193.336 18.1758 191.848 18.1758C190.477 18.1758 189.264 17.918 188.209 17.4023V14.8711C189.076 15.2578 189.809 15.5303 190.406 15.6885C191.01 15.8467 191.561 15.9258 192.059 15.9258C192.656 15.9258 193.113 15.8115 193.43 15.583C193.752 15.3545 193.913 15.0146 193.913 14.5635C193.913 14.3115 193.843 14.0889 193.702 13.8955C193.562 13.6963 193.354 13.5059 193.078 13.3242C192.809 13.1426 192.255 12.8525 191.417 12.4541C190.632 12.085 190.043 11.7305 189.65 11.3906C189.258 11.0508 188.944 10.6553 188.71 10.2041C188.476 9.75293 188.358 9.22559 188.358 8.62207C188.358 7.48535 188.742 6.5918 189.51 5.94141C190.283 5.29102 191.35 4.96582 192.709 4.96582C193.377 4.96582 194.013 5.04492 194.616 5.20312C195.226 5.36133 195.861 5.58398 196.523 5.87109L195.645 7.98926C194.959 7.70801 194.391 7.51172 193.939 7.40039C193.494 7.28906 193.055 7.2334 192.621 7.2334C192.105 7.2334 191.71 7.35352 191.435 7.59375C191.159 7.83398 191.021 8.14746 191.021 8.53418C191.021 8.77441 191.077 8.98535 191.188 9.16699C191.3 9.34277 191.476 9.51562 191.716 9.68555C191.962 9.84961 192.539 10.1484 193.447 10.582C194.648 11.1562 195.472 11.7334 195.917 12.3135C196.362 12.8877 196.585 13.5938 196.585 14.4316Z" fill="#48555B"/>
<path d="M0 35H50" stroke="#00A4E5" stroke-width="2" stroke-linecap="square"/>
</g>
<defs>
<clipPath id="clip0">
<rect width="199" height="36" fill="white"/>
</clipPath>
</defs>
</svg>
