<svg width="386" height="17" viewBox="0 0 386 17" fill="none" xmlns="http://www.w3.org/2000/svg">
<path d="M9.26562 13L8.125 9.82812H3.75781L2.64062 13H0.671875L4.94531 1.53125H6.97656L11.25 13H9.26562ZM7.63281 8.21875L6.5625 5.10938C6.48438 4.90104 6.375 4.57292 6.23438 4.125C6.09896 3.67708 6.00521 3.34896 5.95312 3.14062C5.8125 3.78125 5.60677 4.48177 5.33594 5.24219L4.30469 8.21875H7.63281ZM20.1641 13H18.3203V7.6875C18.3203 7.02083 18.1849 6.52344 17.9141 6.19531C17.6484 5.86719 17.224 5.70312 16.6406 5.70312C15.8646 5.70312 15.2969 5.93229 14.9375 6.39062C14.5781 6.84896 14.3984 7.61719 14.3984 8.69531V13H12.5625V4.35938H14L14.2578 5.49219H14.3516C14.612 5.08073 14.9818 4.76302 15.4609 4.53906C15.9401 4.3151 16.4714 4.20312 17.0547 4.20312C19.1276 4.20312 20.1641 5.25781 20.1641 7.36719V13ZM32.2812 13L31.9141 11.7969H31.8516C31.4349 12.3229 31.0156 12.6823 30.5938 12.875C30.1719 13.0625 29.6302 13.1562 28.9688 13.1562C28.1198 13.1562 27.4557 12.9271 26.9766 12.4688C26.5026 12.0104 26.2656 11.362 26.2656 10.5234C26.2656 9.63281 26.5964 8.96094 27.2578 8.50781C27.9193 8.05469 28.9271 7.80729 30.2812 7.76562L31.7734 7.71875V7.25781C31.7734 6.70573 31.6432 6.29427 31.3828 6.02344C31.1276 5.7474 30.7292 5.60938 30.1875 5.60938C29.7448 5.60938 29.3203 5.67448 28.9141 5.80469C28.5078 5.9349 28.1172 6.08854 27.7422 6.26562L27.1484 4.95312C27.6172 4.70833 28.1302 4.52344 28.6875 4.39844C29.2448 4.26823 29.7708 4.20312 30.2656 4.20312C31.3646 4.20312 32.1927 4.44271 32.75 4.92188C33.3125 5.40104 33.5938 6.15365 33.5938 7.17969V13H32.2812ZM29.5469 11.75C30.2135 11.75 30.7474 11.5651 31.1484 11.1953C31.5547 10.8203 31.7578 10.2969 31.7578 9.625V8.875L30.6484 8.92188C29.7839 8.95312 29.1536 9.09896 28.7578 9.35938C28.3672 9.61458 28.1719 10.0078 28.1719 10.5391C28.1719 10.9245 28.2865 11.224 28.5156 11.4375C28.7448 11.6458 29.0885 11.75 29.5469 11.75ZM43.2422 13L42.125 8.96875C41.9896 8.54167 41.7448 7.54948 41.3906 5.99219H41.3203C41.0182 7.39844 40.7786 8.39583 40.6016 8.98438L39.4531 13H37.4219L35 4.35938H36.875L37.9766 8.61719C38.2266 9.66927 38.4036 10.5703 38.5078 11.3203H38.5547C38.6068 10.9401 38.6849 10.5052 38.7891 10.0156C38.8984 9.52083 38.9922 9.15104 39.0703 8.90625L40.3828 4.35938H42.3984L43.6719 8.90625C43.75 9.16146 43.8464 9.55208 43.9609 10.0781C44.0807 10.6042 44.151 11.013 44.1719 11.3047H44.2344C44.3125 10.6641 44.4948 9.76823 44.7812 8.61719L45.8984 4.35938H47.7422L45.3047 13H43.2422ZM54.6406 13L54.2734 11.7969H54.2109C53.7943 12.3229 53.375 12.6823 52.9531 12.875C52.5312 13.0625 51.9896 13.1562 51.3281 13.1562C50.4792 13.1562 49.8151 12.9271 49.3359 12.4688C48.862 12.0104 48.625 11.362 48.625 10.5234C48.625 9.63281 48.9557 8.96094 49.6172 8.50781C50.2786 8.05469 51.2865 7.80729 52.6406 7.76562L54.1328 7.71875V7.25781C54.1328 6.70573 54.0026 6.29427 53.7422 6.02344C53.487 5.7474 53.0885 5.60938 52.5469 5.60938C52.1042 5.60938 51.6797 5.67448 51.2734 5.80469C50.8672 5.9349 50.4766 6.08854 50.1016 6.26562L49.5078 4.95312C49.9766 4.70833 50.4896 4.52344 51.0469 4.39844C51.6042 4.26823 52.1302 4.20312 52.625 4.20312C53.724 4.20312 54.5521 4.44271 55.1094 4.92188C55.6719 5.40104 55.9531 6.15365 55.9531 7.17969V13H54.6406ZM51.9062 11.75C52.5729 11.75 53.1068 11.5651 53.5078 11.1953C53.9141 10.8203 54.1172 10.2969 54.1172 9.625V8.875L53.0078 8.92188C52.1432 8.95312 51.513 9.09896 51.1172 9.35938C50.7266 9.61458 50.5312 10.0078 50.5312 10.5391C50.5312 10.9245 50.6458 11.224 50.875 11.4375C51.1042 11.6458 51.4479 11.75 51.9062 11.75ZM62.8984 4.20312C63.2682 4.20312 63.5729 4.22917 63.8125 4.28125L63.6328 5.99219C63.3724 5.92969 63.1016 5.89844 62.8203 5.89844C62.0859 5.89844 61.4896 6.13802 61.0312 6.61719C60.5781 7.09635 60.3516 7.71875 60.3516 8.48438V13H58.5156V4.35938H59.9531L60.1953 5.88281H60.2891C60.5755 5.36719 60.9479 4.95833 61.4062 4.65625C61.8698 4.35417 62.3672 4.20312 62.8984 4.20312ZM68.3359 13.1562C67.2578 13.1562 66.4167 12.7656 65.8125 11.9844C65.2083 11.2031 64.9062 10.1068 64.9062 8.69531C64.9062 7.27865 65.2109 6.17708 65.8203 5.39062C66.4349 4.59896 67.2839 4.20312 68.3672 4.20312C69.5026 4.20312 70.3672 4.6224 70.9609 5.46094H71.0547C70.9661 4.84115 70.9219 4.35156 70.9219 3.99219V0.84375H72.7656V13H71.3281L71.0078 11.8672H70.9219C70.3333 12.7266 69.4714 13.1562 68.3359 13.1562ZM68.8281 11.6719C69.5833 11.6719 70.1328 11.4609 70.4766 11.0391C70.8203 10.612 70.9974 9.92188 71.0078 8.96875V8.71094C71.0078 7.6224 70.8307 6.84896 70.4766 6.39062C70.1224 5.93229 69.5677 5.70312 68.8125 5.70312C68.1667 5.70312 67.6693 5.96615 67.3203 6.49219C66.9714 7.01302 66.7969 7.75781 66.7969 8.72656C66.7969 9.6849 66.9661 10.4167 67.3047 10.9219C67.6432 11.4219 68.151 11.6719 68.8281 11.6719ZM74.6406 9.49219V7.92969H78.6562V9.49219H74.6406ZM87.6328 13L86.5156 8.96875C86.3802 8.54167 86.1354 7.54948 85.7812 5.99219H85.7109C85.4089 7.39844 85.1693 8.39583 84.9922 8.98438L83.8438 13H81.8125L79.3906 4.35938H81.2656L82.3672 8.61719C82.6172 9.66927 82.7943 10.5703 82.8984 11.3203H82.9453C82.9974 10.9401 83.0755 10.5052 83.1797 10.0156C83.2891 9.52083 83.3828 9.15104 83.4609 8.90625L84.7734 4.35938H86.7891L88.0625 8.90625C88.1406 9.16146 88.237 9.55208 88.3516 10.0781C88.4714 10.6042 88.5417 11.013 88.5625 11.3047H88.625C88.7031 10.6641 88.8854 9.76823 89.1719 8.61719L90.2891 4.35938H92.1328L89.6953 13H87.6328ZM95.4609 13H93.625V4.35938H95.4609V13ZM93.5156 2.07031C93.5156 1.74219 93.6042 1.48958 93.7812 1.3125C93.9635 1.13542 94.2214 1.04688 94.5547 1.04688C94.8776 1.04688 95.1276 1.13542 95.3047 1.3125C95.487 1.48958 95.5781 1.74219 95.5781 2.07031C95.5781 2.38281 95.487 2.63021 95.3047 2.8125C95.1276 2.98958 94.8776 3.07812 94.5547 3.07812C94.2214 3.07812 93.9635 2.98958 93.7812 2.8125C93.6042 2.63021 93.5156 2.38281 93.5156 2.07031ZM105.695 13H103.852V7.6875C103.852 7.02083 103.716 6.52344 103.445 6.19531C103.18 5.86719 102.755 5.70312 102.172 5.70312C101.396 5.70312 100.828 5.93229 100.469 6.39062C100.109 6.84896 99.9297 7.61719 99.9297 8.69531V13H98.0938V4.35938H99.5312L99.7891 5.49219H99.8828C100.143 5.08073 100.513 4.76302 100.992 4.53906C101.471 4.3151 102.003 4.20312 102.586 4.20312C104.659 4.20312 105.695 5.25781 105.695 7.36719V13ZM115.852 13H114.008V7.6875C114.008 7.02083 113.872 6.52344 113.602 6.19531C113.336 5.86719 112.911 5.70312 112.328 5.70312C111.552 5.70312 110.984 5.93229 110.625 6.39062C110.266 6.84896 110.086 7.61719 110.086 8.69531V13H108.25V4.35938H109.688L109.945 5.49219H110.039C110.299 5.08073 110.669 4.76302 111.148 4.53906C111.628 4.3151 112.159 4.20312 112.742 4.20312C114.815 4.20312 115.852 5.25781 115.852 7.36719V13ZM120.242 13H118.406V4.35938H120.242V13ZM118.297 2.07031C118.297 1.74219 118.385 1.48958 118.562 1.3125C118.745 1.13542 119.003 1.04688 119.336 1.04688C119.659 1.04688 119.909 1.13542 120.086 1.3125C120.268 1.48958 120.359 1.74219 120.359 2.07031C120.359 2.38281 120.268 2.63021 120.086 2.8125C119.909 2.98958 119.659 3.07812 119.336 3.07812C119.003 3.07812 118.745 2.98958 118.562 2.8125C118.385 2.63021 118.297 2.38281 118.297 2.07031ZM130.477 13H128.633V7.6875C128.633 7.02083 128.497 6.52344 128.227 6.19531C127.961 5.86719 127.536 5.70312 126.953 5.70312C126.177 5.70312 125.609 5.93229 125.25 6.39062C124.891 6.84896 124.711 7.61719 124.711 8.69531V13H122.875V4.35938H124.312L124.57 5.49219H124.664C124.924 5.08073 125.294 4.76302 125.773 4.53906C126.253 4.3151 126.784 4.20312 127.367 4.20312C129.44 4.20312 130.477 5.25781 130.477 7.36719V13ZM140.328 4.35938V5.36719L138.852 5.64062C138.987 5.82292 139.099 6.04688 139.188 6.3125C139.276 6.57812 139.32 6.85938 139.32 7.15625C139.32 8.04688 139.013 8.7474 138.398 9.25781C137.784 9.76823 136.938 10.0234 135.859 10.0234C135.583 10.0234 135.333 10.0026 135.109 9.96094C134.714 10.2057 134.516 10.4922 134.516 10.8203C134.516 11.0182 134.607 11.1667 134.789 11.2656C134.977 11.3646 135.318 11.4141 135.812 11.4141H137.32C138.273 11.4141 138.997 11.6172 139.492 12.0234C139.987 12.4297 140.234 13.0156 140.234 13.7812C140.234 14.7604 139.831 15.5156 139.023 16.0469C138.216 16.5781 137.049 16.8438 135.523 16.8438C134.346 16.8438 133.448 16.6354 132.828 16.2188C132.208 15.8021 131.898 15.2083 131.898 14.4375C131.898 13.9062 132.065 13.4583 132.398 13.0938C132.737 12.7344 133.208 12.4844 133.812 12.3438C133.568 12.2396 133.365 12.0729 133.203 11.8438C133.047 11.6094 132.969 11.3646 132.969 11.1094C132.969 10.7865 133.06 10.513 133.242 10.2891C133.424 10.0651 133.695 9.84375 134.055 9.625C133.607 9.43229 133.242 9.11979 132.961 8.6875C132.685 8.25 132.547 7.73958 132.547 7.15625C132.547 6.21875 132.841 5.49219 133.43 4.97656C134.023 4.46094 134.867 4.20312 135.961 4.20312C136.206 4.20312 136.461 4.22135 136.727 4.25781C136.997 4.28906 137.201 4.32292 137.336 4.35938H140.328ZM133.539 14.3438C133.539 14.7396 133.716 15.0443 134.07 15.2578C134.43 15.4714 134.932 15.5781 135.578 15.5781C136.578 15.5781 137.323 15.4349 137.812 15.1484C138.302 14.862 138.547 14.4818 138.547 14.0078C138.547 13.6328 138.411 13.3646 138.141 13.2031C137.875 13.0469 137.378 12.9688 136.648 12.9688H135.258C134.732 12.9688 134.312 13.0911 134 13.3359C133.693 13.5859 133.539 13.9219 133.539 14.3438ZM134.328 7.15625C134.328 7.69792 134.466 8.11458 134.742 8.40625C135.023 8.69792 135.424 8.84375 135.945 8.84375C137.008 8.84375 137.539 8.27604 137.539 7.14062C137.539 6.57812 137.406 6.14583 137.141 5.84375C136.88 5.53646 136.482 5.38281 135.945 5.38281C135.414 5.38281 135.01 5.53385 134.734 5.83594C134.464 6.13802 134.328 6.57812 134.328 7.15625ZM149.578 13.1562C148.271 13.1562 147.276 12.776 146.594 12.0156C145.917 11.25 145.578 10.1536 145.578 8.72656C145.578 7.27344 145.932 6.15625 146.641 5.375C147.354 4.59375 148.383 4.20312 149.727 4.20312C150.638 4.20312 151.458 4.3724 152.188 4.71094L151.633 6.1875C150.857 5.88542 150.216 5.73438 149.711 5.73438C148.216 5.73438 147.469 6.72656 147.469 8.71094C147.469 9.67969 147.654 10.4089 148.023 10.8984C148.398 11.3828 148.945 11.625 149.664 11.625C150.482 11.625 151.255 11.4219 151.984 11.0156V12.6172C151.656 12.8099 151.305 12.9479 150.93 13.0312C150.56 13.1146 150.109 13.1562 149.578 13.1562ZM161.68 8.66406C161.68 10.0755 161.318 11.1771 160.594 11.9688C159.87 12.7604 158.862 13.1562 157.57 13.1562C156.763 13.1562 156.049 12.974 155.43 12.6094C154.81 12.2448 154.333 11.7214 154 11.0391C153.667 10.3568 153.5 9.5651 153.5 8.66406C153.5 7.26302 153.859 6.16927 154.578 5.38281C155.297 4.59635 156.31 4.20312 157.617 4.20312C158.867 4.20312 159.857 4.60677 160.586 5.41406C161.315 6.21615 161.68 7.29948 161.68 8.66406ZM155.391 8.66406C155.391 10.6589 156.128 11.6562 157.602 11.6562C159.06 11.6562 159.789 10.6589 159.789 8.66406C159.789 6.6901 159.055 5.70312 157.586 5.70312C156.815 5.70312 156.255 5.95833 155.906 6.46875C155.562 6.97917 155.391 7.71094 155.391 8.66406ZM171.398 13H169.555V7.6875C169.555 7.02083 169.419 6.52344 169.148 6.19531C168.883 5.86719 168.458 5.70312 167.875 5.70312C167.099 5.70312 166.531 5.93229 166.172 6.39062C165.812 6.84896 165.633 7.61719 165.633 8.69531V13H163.797V4.35938H165.234L165.492 5.49219H165.586C165.846 5.08073 166.216 4.76302 166.695 4.53906C167.174 4.3151 167.706 4.20312 168.289 4.20312C170.362 4.20312 171.398 5.25781 171.398 7.36719V13ZM179.758 10.5391C179.758 11.3828 179.451 12.0312 178.836 12.4844C178.221 12.9323 177.341 13.1562 176.195 13.1562C175.044 13.1562 174.12 12.9818 173.422 12.6328V11.0469C174.438 11.5156 175.383 11.75 176.258 11.75C177.388 11.75 177.953 11.4089 177.953 10.7266C177.953 10.5078 177.891 10.3255 177.766 10.1797C177.641 10.0339 177.435 9.88281 177.148 9.72656C176.862 9.57031 176.464 9.39323 175.953 9.19531C174.958 8.8099 174.284 8.42448 173.93 8.03906C173.581 7.65365 173.406 7.15365 173.406 6.53906C173.406 5.79948 173.703 5.22656 174.297 4.82031C174.896 4.40885 175.708 4.20312 176.734 4.20312C177.75 4.20312 178.711 4.40885 179.617 4.82031L179.023 6.20312C178.091 5.81771 177.307 5.625 176.672 5.625C175.703 5.625 175.219 5.90104 175.219 6.45312C175.219 6.72396 175.344 6.95312 175.594 7.14062C175.849 7.32812 176.401 7.58594 177.25 7.91406C177.964 8.1901 178.482 8.44271 178.805 8.67188C179.128 8.90104 179.367 9.16667 179.523 9.46875C179.68 9.76562 179.758 10.1224 179.758 10.5391ZM184.969 11.6719C185.417 11.6719 185.865 11.6016 186.312 11.4609V12.8438C186.109 12.9323 185.846 13.0052 185.523 13.0625C185.206 13.125 184.875 13.1562 184.531 13.1562C182.792 13.1562 181.922 12.2396 181.922 10.4062V5.75H180.742V4.9375L182.008 4.26562L182.633 2.4375H183.766V4.35938H186.227V5.75H183.766V10.375C183.766 10.8177 183.875 11.1458 184.094 11.3594C184.318 11.5677 184.609 11.6719 184.969 11.6719ZM192.43 4.20312C192.799 4.20312 193.104 4.22917 193.344 4.28125L193.164 5.99219C192.904 5.92969 192.633 5.89844 192.352 5.89844C191.617 5.89844 191.021 6.13802 190.562 6.61719C190.109 7.09635 189.883 7.71875 189.883 8.48438V13H188.047V4.35938H189.484L189.727 5.88281H189.82C190.107 5.36719 190.479 4.95833 190.938 4.65625C191.401 4.35417 191.898 4.20312 192.43 4.20312ZM201.047 13L200.789 11.8672H200.695C200.44 12.2682 200.076 12.5833 199.602 12.8125C199.133 13.0417 198.596 13.1562 197.992 13.1562C196.945 13.1562 196.164 12.8958 195.648 12.375C195.133 11.8542 194.875 11.0651 194.875 10.0078V4.35938H196.727V9.6875C196.727 10.349 196.862 10.8464 197.133 11.1797C197.404 11.5078 197.828 11.6719 198.406 11.6719C199.177 11.6719 199.742 11.4427 200.102 10.9844C200.466 10.5208 200.648 9.7474 200.648 8.66406V4.35938H202.492V13H201.047ZM208.594 13.1562C207.286 13.1562 206.292 12.776 205.609 12.0156C204.932 11.25 204.594 10.1536 204.594 8.72656C204.594 7.27344 204.948 6.15625 205.656 5.375C206.37 4.59375 207.398 4.20312 208.742 4.20312C209.654 4.20312 210.474 4.3724 211.203 4.71094L210.648 6.1875C209.872 5.88542 209.232 5.73438 208.727 5.73438C207.232 5.73438 206.484 6.72656 206.484 8.71094C206.484 9.67969 206.669 10.4089 207.039 10.8984C207.414 11.3828 207.961 11.625 208.68 11.625C209.497 11.625 210.271 11.4219 211 11.0156V12.6172C210.672 12.8099 210.32 12.9479 209.945 13.0312C209.576 13.1146 209.125 13.1562 208.594 13.1562ZM216.25 11.6719C216.698 11.6719 217.146 11.6016 217.594 11.4609V12.8438C217.391 12.9323 217.128 13.0052 216.805 13.0625C216.487 13.125 216.156 13.1562 215.812 13.1562C214.073 13.1562 213.203 12.2396 213.203 10.4062V5.75H212.023V4.9375L213.289 4.26562L213.914 2.4375H215.047V4.35938H217.508V5.75H215.047V10.375C215.047 10.8177 215.156 11.1458 215.375 11.3594C215.599 11.5677 215.891 11.6719 216.25 11.6719ZM221.164 13H219.328V4.35938H221.164V13ZM219.219 2.07031C219.219 1.74219 219.307 1.48958 219.484 1.3125C219.667 1.13542 219.924 1.04688 220.258 1.04688C220.581 1.04688 220.831 1.13542 221.008 1.3125C221.19 1.48958 221.281 1.74219 221.281 2.07031C221.281 2.38281 221.19 2.63021 221.008 2.8125C220.831 2.98958 220.581 3.07812 220.258 3.07812C219.924 3.07812 219.667 2.98958 219.484 2.8125C219.307 2.63021 219.219 2.38281 219.219 2.07031ZM231.461 8.66406C231.461 10.0755 231.099 11.1771 230.375 11.9688C229.651 12.7604 228.643 13.1562 227.352 13.1562C226.544 13.1562 225.831 12.974 225.211 12.6094C224.591 12.2448 224.115 11.7214 223.781 11.0391C223.448 10.3568 223.281 9.5651 223.281 8.66406C223.281 7.26302 223.641 6.16927 224.359 5.38281C225.078 4.59635 226.091 4.20312 227.398 4.20312C228.648 4.20312 229.638 4.60677 230.367 5.41406C231.096 6.21615 231.461 7.29948 231.461 8.66406ZM225.172 8.66406C225.172 10.6589 225.909 11.6562 227.383 11.6562C228.841 11.6562 229.57 10.6589 229.57 8.66406C229.57 6.6901 228.836 5.70312 227.367 5.70312C226.596 5.70312 226.036 5.95833 225.688 6.46875C225.344 6.97917 225.172 7.71094 225.172 8.66406ZM241.18 13H239.336V7.6875C239.336 7.02083 239.201 6.52344 238.93 6.19531C238.664 5.86719 238.24 5.70312 237.656 5.70312C236.88 5.70312 236.312 5.93229 235.953 6.39062C235.594 6.84896 235.414 7.61719 235.414 8.69531V13H233.578V4.35938H235.016L235.273 5.49219H235.367C235.628 5.08073 235.997 4.76302 236.477 4.53906C236.956 4.3151 237.487 4.20312 238.07 4.20312C240.143 4.20312 241.18 5.25781 241.18 7.36719V13ZM255.172 13H253.328V7.67188C253.328 7.01042 253.203 6.51823 252.953 6.19531C252.703 5.86719 252.312 5.70312 251.781 5.70312C251.073 5.70312 250.552 5.9349 250.219 6.39844C249.891 6.85677 249.727 7.6224 249.727 8.69531V13H247.891V4.35938H249.328L249.586 5.49219H249.68C249.919 5.08073 250.266 4.76302 250.719 4.53906C251.177 4.3151 251.68 4.20312 252.227 4.20312C253.555 4.20312 254.435 4.65625 254.867 5.5625H254.992C255.247 5.13542 255.607 4.80208 256.07 4.5625C256.534 4.32292 257.065 4.20312 257.664 4.20312C258.695 4.20312 259.445 4.46354 259.914 4.98438C260.388 5.50521 260.625 6.29948 260.625 7.36719V13H258.789V7.67188C258.789 7.01042 258.661 6.51823 258.406 6.19531C258.156 5.86719 257.766 5.70312 257.234 5.70312C256.521 5.70312 255.997 5.92708 255.664 6.375C255.336 6.81771 255.172 7.5 255.172 8.42188V13ZM268.594 13L268.227 11.7969H268.164C267.747 12.3229 267.328 12.6823 266.906 12.875C266.484 13.0625 265.943 13.1562 265.281 13.1562C264.432 13.1562 263.768 12.9271 263.289 12.4688C262.815 12.0104 262.578 11.362 262.578 10.5234C262.578 9.63281 262.909 8.96094 263.57 8.50781C264.232 8.05469 265.24 7.80729 266.594 7.76562L268.086 7.71875V7.25781C268.086 6.70573 267.956 6.29427 267.695 6.02344C267.44 5.7474 267.042 5.60938 266.5 5.60938C266.057 5.60938 265.633 5.67448 265.227 5.80469C264.82 5.9349 264.43 6.08854 264.055 6.26562L263.461 4.95312C263.93 4.70833 264.443 4.52344 265 4.39844C265.557 4.26823 266.083 4.20312 266.578 4.20312C267.677 4.20312 268.505 4.44271 269.062 4.92188C269.625 5.40104 269.906 6.15365 269.906 7.17969V13H268.594ZM265.859 11.75C266.526 11.75 267.06 11.5651 267.461 11.1953C267.867 10.8203 268.07 10.2969 268.07 9.625V8.875L266.961 8.92188C266.096 8.95312 265.466 9.09896 265.07 9.35938C264.68 9.61458 264.484 10.0078 264.484 10.5391C264.484 10.9245 264.599 11.224 264.828 11.4375C265.057 11.6458 265.401 11.75 265.859 11.75ZM280.07 13H278.227V7.6875C278.227 7.02083 278.091 6.52344 277.82 6.19531C277.555 5.86719 277.13 5.70312 276.547 5.70312C275.771 5.70312 275.203 5.93229 274.844 6.39062C274.484 6.84896 274.305 7.61719 274.305 8.69531V13H272.469V4.35938H273.906L274.164 5.49219H274.258C274.518 5.08073 274.888 4.76302 275.367 4.53906C275.846 4.3151 276.378 4.20312 276.961 4.20312C279.034 4.20312 280.07 5.25781 280.07 7.36719V13ZM288.031 13L287.664 11.7969H287.602C287.185 12.3229 286.766 12.6823 286.344 12.875C285.922 13.0625 285.38 13.1562 284.719 13.1562C283.87 13.1562 283.206 12.9271 282.727 12.4688C282.253 12.0104 282.016 11.362 282.016 10.5234C282.016 9.63281 282.346 8.96094 283.008 8.50781C283.669 8.05469 284.677 7.80729 286.031 7.76562L287.523 7.71875V7.25781C287.523 6.70573 287.393 6.29427 287.133 6.02344C286.878 5.7474 286.479 5.60938 285.938 5.60938C285.495 5.60938 285.07 5.67448 284.664 5.80469C284.258 5.9349 283.867 6.08854 283.492 6.26562L282.898 4.95312C283.367 4.70833 283.88 4.52344 284.438 4.39844C284.995 4.26823 285.521 4.20312 286.016 4.20312C287.115 4.20312 287.943 4.44271 288.5 4.92188C289.062 5.40104 289.344 6.15365 289.344 7.17969V13H288.031ZM285.297 11.75C285.964 11.75 286.497 11.5651 286.898 11.1953C287.305 10.8203 287.508 10.2969 287.508 9.625V8.875L286.398 8.92188C285.534 8.95312 284.904 9.09896 284.508 9.35938C284.117 9.61458 283.922 10.0078 283.922 10.5391C283.922 10.9245 284.036 11.224 284.266 11.4375C284.495 11.6458 284.839 11.75 285.297 11.75ZM299.203 4.35938V5.36719L297.727 5.64062C297.862 5.82292 297.974 6.04688 298.062 6.3125C298.151 6.57812 298.195 6.85938 298.195 7.15625C298.195 8.04688 297.888 8.7474 297.273 9.25781C296.659 9.76823 295.812 10.0234 294.734 10.0234C294.458 10.0234 294.208 10.0026 293.984 9.96094C293.589 10.2057 293.391 10.4922 293.391 10.8203C293.391 11.0182 293.482 11.1667 293.664 11.2656C293.852 11.3646 294.193 11.4141 294.688 11.4141H296.195C297.148 11.4141 297.872 11.6172 298.367 12.0234C298.862 12.4297 299.109 13.0156 299.109 13.7812C299.109 14.7604 298.706 15.5156 297.898 16.0469C297.091 16.5781 295.924 16.8438 294.398 16.8438C293.221 16.8438 292.323 16.6354 291.703 16.2188C291.083 15.8021 290.773 15.2083 290.773 14.4375C290.773 13.9062 290.94 13.4583 291.273 13.0938C291.612 12.7344 292.083 12.4844 292.688 12.3438C292.443 12.2396 292.24 12.0729 292.078 11.8438C291.922 11.6094 291.844 11.3646 291.844 11.1094C291.844 10.7865 291.935 10.513 292.117 10.2891C292.299 10.0651 292.57 9.84375 292.93 9.625C292.482 9.43229 292.117 9.11979 291.836 8.6875C291.56 8.25 291.422 7.73958 291.422 7.15625C291.422 6.21875 291.716 5.49219 292.305 4.97656C292.898 4.46094 293.742 4.20312 294.836 4.20312C295.081 4.20312 295.336 4.22135 295.602 4.25781C295.872 4.28906 296.076 4.32292 296.211 4.35938H299.203ZM292.414 14.3438C292.414 14.7396 292.591 15.0443 292.945 15.2578C293.305 15.4714 293.807 15.5781 294.453 15.5781C295.453 15.5781 296.198 15.4349 296.688 15.1484C297.177 14.862 297.422 14.4818 297.422 14.0078C297.422 13.6328 297.286 13.3646 297.016 13.2031C296.75 13.0469 296.253 12.9688 295.523 12.9688H294.133C293.607 12.9688 293.188 13.0911 292.875 13.3359C292.568 13.5859 292.414 13.9219 292.414 14.3438ZM293.203 7.15625C293.203 7.69792 293.341 8.11458 293.617 8.40625C293.898 8.69792 294.299 8.84375 294.82 8.84375C295.883 8.84375 296.414 8.27604 296.414 7.14062C296.414 6.57812 296.281 6.14583 296.016 5.84375C295.755 5.53646 295.357 5.38281 294.82 5.38281C294.289 5.38281 293.885 5.53385 293.609 5.83594C293.339 6.13802 293.203 6.57812 293.203 7.15625ZM304.586 13.1562C303.242 13.1562 302.19 12.7656 301.43 11.9844C300.674 11.1979 300.297 10.1172 300.297 8.74219C300.297 7.33073 300.648 6.22135 301.352 5.41406C302.055 4.60677 303.021 4.20312 304.25 4.20312C305.391 4.20312 306.292 4.54948 306.953 5.24219C307.615 5.9349 307.945 6.88802 307.945 8.10156V9.09375H302.188C302.214 9.93229 302.44 10.5781 302.867 11.0312C303.294 11.4792 303.896 11.7031 304.672 11.7031C305.182 11.7031 305.656 11.6562 306.094 11.5625C306.536 11.4635 307.01 11.3021 307.516 11.0781V12.5703C307.068 12.7839 306.615 12.9349 306.156 13.0234C305.698 13.112 305.174 13.1562 304.586 13.1562ZM304.25 5.59375C303.667 5.59375 303.198 5.77865 302.844 6.14844C302.495 6.51823 302.286 7.05729 302.219 7.76562H306.141C306.13 7.05208 305.958 6.51302 305.625 6.14844C305.292 5.77865 304.833 5.59375 304.25 5.59375ZM317.312 13H315.469V7.67188C315.469 7.01042 315.344 6.51823 315.094 6.19531C314.844 5.86719 314.453 5.70312 313.922 5.70312C313.214 5.70312 312.693 5.9349 312.359 6.39844C312.031 6.85677 311.867 7.6224 311.867 8.69531V13H310.031V4.35938H311.469L311.727 5.49219H311.82C312.06 5.08073 312.406 4.76302 312.859 4.53906C313.318 4.3151 313.82 4.20312 314.367 4.20312C315.695 4.20312 316.576 4.65625 317.008 5.5625H317.133C317.388 5.13542 317.747 4.80208 318.211 4.5625C318.674 4.32292 319.206 4.20312 319.805 4.20312C320.836 4.20312 321.586 4.46354 322.055 4.98438C322.529 5.50521 322.766 6.29948 322.766 7.36719V13H320.93V7.67188C320.93 7.01042 320.802 6.51823 320.547 6.19531C320.297 5.86719 319.906 5.70312 319.375 5.70312C318.661 5.70312 318.138 5.92708 317.805 6.375C317.477 6.81771 317.312 7.5 317.312 8.42188V13ZM329.102 13.1562C327.758 13.1562 326.706 12.7656 325.945 11.9844C325.19 11.1979 324.812 10.1172 324.812 8.74219C324.812 7.33073 325.164 6.22135 325.867 5.41406C326.57 4.60677 327.536 4.20312 328.766 4.20312C329.906 4.20312 330.807 4.54948 331.469 5.24219C332.13 5.9349 332.461 6.88802 332.461 8.10156V9.09375H326.703C326.729 9.93229 326.956 10.5781 327.383 11.0312C327.81 11.4792 328.411 11.7031 329.188 11.7031C329.698 11.7031 330.172 11.6562 330.609 11.5625C331.052 11.4635 331.526 11.3021 332.031 11.0781V12.5703C331.583 12.7839 331.13 12.9349 330.672 13.0234C330.214 13.112 329.69 13.1562 329.102 13.1562ZM328.766 5.59375C328.182 5.59375 327.714 5.77865 327.359 6.14844C327.01 6.51823 326.802 7.05729 326.734 7.76562H330.656C330.646 7.05208 330.474 6.51302 330.141 6.14844C329.807 5.77865 329.349 5.59375 328.766 5.59375ZM342.148 13H340.305V7.6875C340.305 7.02083 340.169 6.52344 339.898 6.19531C339.633 5.86719 339.208 5.70312 338.625 5.70312C337.849 5.70312 337.281 5.93229 336.922 6.39062C336.562 6.84896 336.383 7.61719 336.383 8.69531V13H334.547V4.35938H335.984L336.242 5.49219H336.336C336.596 5.08073 336.966 4.76302 337.445 4.53906C337.924 4.3151 338.456 4.20312 339.039 4.20312C341.112 4.20312 342.148 5.25781 342.148 7.36719V13ZM347.922 11.6719C348.37 11.6719 348.818 11.6016 349.266 11.4609V12.8438C349.062 12.9323 348.799 13.0052 348.477 13.0625C348.159 13.125 347.828 13.1562 347.484 13.1562C345.745 13.1562 344.875 12.2396 344.875 10.4062V5.75H343.695V4.9375L344.961 4.26562L345.586 2.4375H346.719V4.35938H349.18V5.75H346.719V10.375C346.719 10.8177 346.828 11.1458 347.047 11.3594C347.271 11.5677 347.562 11.6719 347.922 11.6719ZM359.492 5.75H357.383V13H355.539V5.75H354.117V4.89062L355.539 4.32812V3.76562C355.539 2.74479 355.779 1.98958 356.258 1.5C356.737 1.00521 357.469 0.757812 358.453 0.757812C359.099 0.757812 359.734 0.864583 360.359 1.07812L359.875 2.46875C359.422 2.32292 358.99 2.25 358.578 2.25C358.161 2.25 357.857 2.38021 357.664 2.64062C357.477 2.89583 357.383 3.28125 357.383 3.79688V4.35938H359.492V5.75ZM362.797 13H360.961V4.35938H362.797V13ZM360.852 2.07031C360.852 1.74219 360.94 1.48958 361.117 1.3125C361.299 1.13542 361.557 1.04688 361.891 1.04688C362.214 1.04688 362.464 1.13542 362.641 1.3125C362.823 1.48958 362.914 1.74219 362.914 2.07031C362.914 2.38281 362.823 2.63021 362.641 2.8125C362.464 2.98958 362.214 3.07812 361.891 3.07812C361.557 3.07812 361.299 2.98958 361.117 2.8125C360.94 2.63021 360.852 2.38281 360.852 2.07031ZM369.82 4.20312C370.19 4.20312 370.495 4.22917 370.734 4.28125L370.555 5.99219C370.294 5.92969 370.023 5.89844 369.742 5.89844C369.008 5.89844 368.411 6.13802 367.953 6.61719C367.5 7.09635 367.273 7.71875 367.273 8.48438V13H365.438V4.35938H366.875L367.117 5.88281H367.211C367.497 5.36719 367.87 4.95833 368.328 4.65625C368.792 4.35417 369.289 4.20312 369.82 4.20312ZM379.625 13H377.781V7.67188C377.781 7.01042 377.656 6.51823 377.406 6.19531C377.156 5.86719 376.766 5.70312 376.234 5.70312C375.526 5.70312 375.005 5.9349 374.672 6.39844C374.344 6.85677 374.18 7.6224 374.18 8.69531V13H372.344V4.35938H373.781L374.039 5.49219H374.133C374.372 5.08073 374.719 4.76302 375.172 4.53906C375.63 4.3151 376.133 4.20312 376.68 4.20312C378.008 4.20312 378.888 4.65625 379.32 5.5625H379.445C379.701 5.13542 380.06 4.80208 380.523 4.5625C380.987 4.32292 381.518 4.20312 382.117 4.20312C383.148 4.20312 383.898 4.46354 384.367 4.98438C384.841 5.50521 385.078 6.29948 385.078 7.36719V13H383.242V7.67188C383.242 7.01042 383.115 6.51823 382.859 6.19531C382.609 5.86719 382.219 5.70312 381.688 5.70312C380.974 5.70312 380.451 5.92708 380.117 6.375C379.789 6.81771 379.625 7.5 379.625 8.42188V13Z" fill="white"/>
</svg>
