<svg width="574" height="44" viewBox="0 0 574 44" fill="none" xmlns="http://www.w3.org/2000/svg">
<path d="M0.888672 43V0.988281H10.6152C13.877 0.988281 16.3281 1.87695 17.9688 3.6543C19.6289 5.43164 20.459 8.00977 20.459 11.3887V16.8379C20.459 20.2168 19.6289 22.7949 17.9688 24.5723C16.3281 26.3301 13.877 27.209 10.6152 27.209H7.48047V43H0.888672ZM7.48047 21.2324H10.6152C11.709 21.2324 12.5195 20.9297 13.0469 20.3242C13.5742 19.7188 13.8379 18.6934 13.8379 17.248V10.9492C13.8379 9.50391 13.5742 8.48828 13.0469 7.90234C12.5195 7.29687 11.709 6.99414 10.6152 6.99414H7.48047V21.2324ZM26.9594 43L33.6684 0.988281H43.3363L50.0453 43H43.3949L42.2523 35.3828H34.1371L32.9945 43H26.9594ZM34.9867 29.6699H41.3441L38.1801 8.42969L34.9867 29.6699ZM58.8309 43V0.988281H68.7918C72.1707 0.988281 74.6414 1.7793 76.2039 3.36133C77.7859 4.94336 78.577 7.375 78.577 10.6562V13.9668C78.577 18.2832 77.1316 21.125 74.241 22.4922C75.823 23.1562 76.9461 24.2305 77.6102 25.7148C78.2938 27.1992 78.6355 29.1035 78.6355 31.4277V37.9023C78.6355 40.2266 78.8699 41.9258 79.3387 43H72.6297C72.4734 42.5117 72.366 42.1504 72.3074 41.916C72.2488 41.6621 72.1805 41.1934 72.1023 40.5098C72.0438 39.8066 72.0145 38.918 72.0145 37.8438V31.252C72.0145 29.3184 71.6727 27.9414 70.9891 27.1211C70.3055 26.3008 69.2117 25.8906 67.7078 25.8906H65.4227V43H58.8309ZM65.4227 19.9141H68.0008C69.3094 19.9141 70.2957 19.582 70.9598 18.918C71.6238 18.2344 71.9559 17.082 71.9559 15.4609V11.3301C71.9559 9.82617 71.6922 8.73242 71.1648 8.04883C70.6375 7.3457 69.7879 6.99414 68.616 6.99414H65.4227V19.9141ZM86.7473 6.99414V0.988281H107.167V6.99414H100.253V43H93.6613V6.99414H86.7473ZM115.718 43V0.988281H123.98L130.777 26.1543V0.988281H136.666V43H129.869L121.666 12.5898V43H115.718ZM147.092 43V0.988281H165.08V6.99414H153.684V18.7129H162.736V24.6895H153.684V36.9941H165.08V43H147.092ZM174.891 43V0.988281H184.852C188.231 0.988281 190.702 1.7793 192.264 3.36133C193.846 4.94336 194.637 7.375 194.637 10.6562V13.9668C194.637 18.2832 193.192 21.125 190.301 22.4922C191.883 23.1562 193.006 24.2305 193.67 25.7148C194.354 27.1992 194.696 29.1035 194.696 31.4277V37.9023C194.696 40.2266 194.93 41.9258 195.399 43H188.69C188.534 42.5117 188.426 42.1504 188.368 41.916C188.309 41.6621 188.241 41.1934 188.163 40.5098C188.104 39.8066 188.075 38.918 188.075 37.8438V31.252C188.075 29.3184 187.733 27.9414 187.049 27.1211C186.366 26.3008 185.272 25.8906 183.768 25.8906H181.483V43H174.891ZM181.483 19.9141H184.061C185.37 19.9141 186.356 19.582 187.02 18.918C187.684 18.2344 188.016 17.082 188.016 15.4609V11.3301C188.016 9.82617 187.752 8.73242 187.225 8.04883C186.698 7.3457 185.848 6.99414 184.676 6.99414H181.483V19.9141ZM218.273 0.988281H224.689L228.234 34.123L231.398 0.988281H237.755L241.066 34.3574L244.493 0.988281H250.236L245.577 43H236.818L234.415 20.6172L232.013 43H222.931L218.273 0.988281ZM259.285 43V0.988281H265.877V43H259.285ZM274.486 6.99414V0.988281H294.906V6.99414H287.992V43H281.4V6.99414H274.486ZM303.516 43V0.988281H310.108V19.0059H317.608V0.988281H324.346V43H317.608V25.0117H310.108V43H303.516ZM349.857 43V0.988281H356.448V19.2988L365.091 0.988281H371.683L362.513 19.709L371.683 43H364.915L358.499 26.2715L356.448 30.1094V43H349.857ZM379.443 32.9219V11.0664C379.443 7.70703 380.312 5.10938 382.05 3.27344C383.789 1.4375 386.269 0.519531 389.492 0.519531C392.714 0.519531 395.185 1.4375 396.904 3.27344C398.642 5.10938 399.511 7.70703 399.511 11.0664V32.9219C399.511 36.2812 398.642 38.8789 396.904 40.7148C395.185 42.5508 392.714 43.4688 389.492 43.4688C386.269 43.4688 383.789 42.5508 382.05 40.7148C380.312 38.8789 379.443 36.2812 379.443 32.9219ZM386.064 33.332C386.064 36.1055 387.207 37.4922 389.492 37.4922C391.757 37.4922 392.89 36.1055 392.89 33.332V10.6562C392.89 7.90234 391.757 6.52539 389.492 6.52539C387.207 6.52539 386.064 7.90234 386.064 10.6562V33.332ZM409.439 43V0.988281H417.701L424.498 26.1543V0.988281H430.387V43H423.59L415.387 12.5898V43H409.439ZM439.788 32.9219V30.3438H446.028V33.332C446.028 36.0664 447.17 37.4336 449.455 37.4336C451.741 37.4336 452.883 36.0664 452.883 33.332C452.883 32.1602 452.639 31.0566 452.151 30.0215C451.682 28.9863 451.067 28.0586 450.305 27.2383C449.563 26.3984 448.733 25.5684 447.815 24.748C446.897 23.9082 445.969 23.0391 445.032 22.1406C444.114 21.2227 443.274 20.2559 442.512 19.2402C441.77 18.2246 441.155 17.0137 440.666 15.6074C440.198 14.2012 439.963 12.6875 439.963 11.0664C439.963 7.6875 440.784 5.08984 442.424 3.27344C444.084 1.4375 446.506 0.519531 449.69 0.519531C452.873 0.519531 455.286 1.4375 456.926 3.27344C458.586 5.08984 459.416 7.6875 459.416 11.0664V12.4141H453.176V10.6562C453.176 7.90234 452.073 6.52539 449.866 6.52539C448.772 6.52539 447.952 6.85742 447.405 7.52148C446.858 8.16602 446.584 9.21094 446.584 10.6562C446.584 11.8281 446.819 12.9316 447.288 13.9668C447.776 15.002 448.391 15.9395 449.133 16.7793C449.895 17.5996 450.735 18.4297 451.653 19.2695C452.571 20.0898 453.489 20.959 454.407 21.877C455.325 22.7754 456.155 23.7324 456.897 24.748C457.659 25.7637 458.274 26.9746 458.743 28.3809C459.231 29.7871 459.475 31.3008 459.475 32.9219C459.475 36.3008 458.635 38.9082 456.955 40.7441C455.276 42.5605 452.834 43.4688 449.631 43.4688C446.428 43.4688 443.987 42.5605 442.307 40.7441C440.627 38.9082 439.788 36.3008 439.788 32.9219ZM467.03 6.99414V0.988281H487.45V6.99414H480.536V43H473.944V6.99414H467.03ZM495.767 32.9805V0.988281H502.359V33.3906C502.359 36.125 503.501 37.4922 505.786 37.4922C508.052 37.4922 509.185 36.125 509.185 33.3906V0.988281H515.425V32.9805C515.425 36.3594 514.585 38.9668 512.905 40.8027C511.245 42.6191 508.814 43.5273 505.611 43.5273C502.407 43.5273 499.966 42.6191 498.286 40.8027C496.607 38.9668 495.767 36.3594 495.767 32.9805ZM525.119 32.9219V11.0664C525.119 7.6875 525.959 5.08984 527.638 3.27344C529.318 1.4375 531.759 0.519531 534.963 0.519531C538.166 0.519531 540.607 1.4375 542.287 3.27344C543.966 5.08984 544.806 7.6875 544.806 11.0664V15.168H538.566V10.6562C538.566 7.90234 537.433 6.52539 535.168 6.52539C532.882 6.52539 531.74 7.90234 531.74 10.6562V33.332C531.74 36.0664 532.882 37.4336 535.168 37.4336C537.433 37.4336 538.566 36.0664 538.566 33.332V27.3262H544.806V32.9219C544.806 36.3008 543.966 38.9082 542.287 40.7441C540.607 42.5605 538.166 43.4688 534.963 43.4688C531.759 43.4688 529.318 42.5605 527.638 40.7441C525.959 38.9082 525.119 36.3008 525.119 32.9219ZM552.596 6.99414V0.988281H573.016V6.99414H566.102V43H559.51V6.99414H552.596Z" fill="white"/>
</svg>
