<svg width="120" height="15" viewBox="0 0 120 15" fill="none" xmlns="http://www.w3.org/2000/svg">
<path d="M12.4205 7.55762C12.4205 9.68457 11.8932 11.3193 10.8385 12.4619C9.78379 13.6045 8.27207 14.1758 6.30332 14.1758C4.33457 14.1758 2.82285 13.6045 1.76817 12.4619C0.713478 11.3193 0.186134 9.67871 0.186134 7.54004C0.186134 5.40137 0.713478 3.76953 1.76817 2.64453C2.82871 1.51367 4.34629 0.948242 6.3209 0.948242C8.29551 0.948242 9.8043 1.5166 10.8473 2.65332C11.8961 3.79004 12.4205 5.4248 12.4205 7.55762ZM3.04258 7.55762C3.04258 8.99316 3.31504 10.0742 3.85996 10.8008C4.40488 11.5273 5.21934 11.8906 6.30332 11.8906C8.47715 11.8906 9.56406 10.4463 9.56406 7.55762C9.56406 4.66309 8.48301 3.21582 6.3209 3.21582C5.23692 3.21582 4.41953 3.58203 3.86875 4.31445C3.31797 5.04102 3.04258 6.12207 3.04258 7.55762ZM27.8488 1.15039V9.46484C27.8488 10.4141 27.635 11.2461 27.2072 11.9609C26.7854 12.6758 26.173 13.2236 25.3703 13.6045C24.5676 13.9854 23.6184 14.1758 22.5227 14.1758C20.8703 14.1758 19.5871 13.7539 18.673 12.9102C17.759 12.0605 17.302 10.9004 17.302 9.42969V1.15039H20.0178V9.0166C20.0178 10.0068 20.217 10.7334 20.6154 11.1963C21.0139 11.6592 21.673 11.8906 22.593 11.8906C23.4836 11.8906 24.1281 11.6592 24.5266 11.1963C24.9309 10.7275 25.133 9.99512 25.133 8.99902V1.15039H27.8488ZM36.0262 6.85449H36.9051C37.7664 6.85449 38.4021 6.71094 38.8123 6.42383C39.2225 6.13672 39.4275 5.68555 39.4275 5.07031C39.4275 4.46094 39.2166 4.02734 38.7947 3.76953C38.3787 3.51172 37.7313 3.38281 36.8523 3.38281H36.0262V6.85449ZM36.0262 9.06934V14H33.3016V1.15039H37.0457C38.7918 1.15039 40.0838 1.46973 40.9217 2.1084C41.7596 2.74121 42.1785 3.70508 42.1785 5C42.1785 5.75586 41.9705 6.42969 41.5545 7.02148C41.1385 7.60742 40.5496 8.06738 39.7879 8.40137C41.7215 11.29 42.9813 13.1562 43.5672 14H40.5438L37.4764 9.06934H36.0262ZM62.0576 10.4316C62.0576 11.5918 61.6387 12.5059 60.8008 13.1738C59.9688 13.8418 58.8086 14.1758 57.3203 14.1758C55.9492 14.1758 54.7363 13.918 53.6816 13.4023V10.8711C54.5488 11.2578 55.2812 11.5303 55.8789 11.6885C56.4824 11.8467 57.0332 11.9258 57.5312 11.9258C58.1289 11.9258 58.5859 11.8115 58.9023 11.583C59.2246 11.3545 59.3857 11.0146 59.3857 10.5635C59.3857 10.3115 59.3154 10.0889 59.1748 9.89551C59.0342 9.69629 58.8262 9.50586 58.5508 9.32422C58.2812 9.14258 57.7275 8.85254 56.8896 8.4541C56.1045 8.08496 55.5156 7.73047 55.123 7.39062C54.7305 7.05078 54.417 6.65527 54.1826 6.2041C53.9482 5.75293 53.8311 5.22559 53.8311 4.62207C53.8311 3.48535 54.2148 2.5918 54.9824 1.94141C55.7559 1.29102 56.8223 0.96582 58.1816 0.96582C58.8496 0.96582 59.4854 1.04492 60.0889 1.20312C60.6982 1.36133 61.334 1.58398 61.9961 1.87109L61.1172 3.98926C60.4316 3.70801 59.8633 3.51172 59.4121 3.40039C58.9668 3.28906 58.5273 3.2334 58.0938 3.2334C57.5781 3.2334 57.1826 3.35352 56.9072 3.59375C56.6318 3.83398 56.4941 4.14746 56.4941 4.53418C56.4941 4.77441 56.5498 4.98535 56.6611 5.16699C56.7725 5.34277 56.9482 5.51562 57.1885 5.68555C57.4346 5.84961 58.0117 6.14844 58.9199 6.58203C60.1211 7.15625 60.9443 7.7334 61.3896 8.31348C61.835 8.8877 62.0576 9.59375 62.0576 10.4316ZM71.65 14H68.9254V3.41797H65.4361V1.15039H75.1393V3.41797H71.65V14ZM91.0861 7.55762C91.0861 9.68457 90.5588 11.3193 89.5041 12.4619C88.4494 13.6045 86.9377 14.1758 84.9689 14.1758C83.0002 14.1758 81.4885 13.6045 80.4338 12.4619C79.3791 11.3193 78.8518 9.67871 78.8518 7.54004C78.8518 5.40137 79.3791 3.76953 80.4338 2.64453C81.4943 1.51367 83.0119 0.948242 84.9865 0.948242C86.9611 0.948242 88.4699 1.5166 89.5129 2.65332C90.5617 3.79004 91.0861 5.4248 91.0861 7.55762ZM81.7082 7.55762C81.7082 8.99316 81.9807 10.0742 82.5256 10.8008C83.0705 11.5273 83.885 11.8906 84.9689 11.8906C87.1428 11.8906 88.2297 10.4463 88.2297 7.55762C88.2297 4.66309 87.1486 3.21582 84.9865 3.21582C83.9025 3.21582 83.0852 3.58203 82.5344 4.31445C81.9836 5.04102 81.7082 6.12207 81.7082 7.55762ZM98.7801 6.85449H99.659C100.52 6.85449 101.156 6.71094 101.566 6.42383C101.976 6.13672 102.181 5.68555 102.181 5.07031C102.181 4.46094 101.971 4.02734 101.549 3.76953C101.133 3.51172 100.485 3.38281 99.6062 3.38281H98.7801V6.85449ZM98.7801 9.06934V14H96.0555V1.15039H99.7996C101.546 1.15039 102.838 1.46973 103.676 2.1084C104.513 2.74121 104.932 3.70508 104.932 5C104.932 5.75586 104.724 6.42969 104.308 7.02148C103.892 7.60742 103.304 8.06738 102.542 8.40137C104.475 11.29 105.735 13.1562 106.321 14H103.298L100.23 9.06934H98.7801ZM114.244 6.44141L116.924 1.15039H119.86L115.597 8.99902V14H112.89V9.08691L108.627 1.15039H111.58L114.244 6.44141Z" fill="#48555B"/>
</svg>
